<svg xmlns="http://www.w3.org/2000/svg" version="1.1"
 width="3375" height="599" viewBox="0 0 3375 599"
 preserveAspectRatio="xMidYMid meet">
<rect width="100%" height="100%" fill="white"/>
<g transform="translate(0.000000,599.000000) scale(0.100000,-0.100000)"
fill="#000000" stroke="none">
<path d="M386 5781 c-3 -4 -28 -11 -55 -15 -52 -7 -111 -32 -111 -47 0 -5 -5
-9 -10 -9 -15 0 -37 -19 -80 -69 -29 -34 -50 -79 -50 -109 0 -17 -4 -34 -10
-37 -12 -8 -13 -112 -1 -119 4 -3 11 -27 14 -53 3 -26 10 -49 16 -51 6 -2 11
-15 11 -28 0 -14 7 -27 15 -30 8 -4 15 -17 15 -30 0 -13 4 -24 9 -24 5 0 11
-8 15 -17 3 -10 11 -27 17 -38 26 -43 30 -51 35 -67 4 -10 10 -18 15 -18 5 0
9 -9 9 -20 0 -11 7 -23 15 -26 8 -4 15 -17 15 -30 0 -15 6 -24 15 -24 9 0 15
-9 15 -25 0 -14 4 -25 9 -25 5 0 12 -11 15 -25 4 -14 11 -25 16 -25 6 0 10 -9
10 -19 0 -10 7 -21 15 -25 8 -3 15 -12 15 -20 0 -18 32 -76 43 -76 4 0 7 -8 7
-19 0 -10 7 -24 15 -31 8 -7 15 -21 15 -32 0 -10 7 -21 15 -24 8 -4 15 -13 15
-22 0 -8 11 -30 25 -48 14 -18 25 -40 25 -48 0 -9 4 -16 8 -16 5 0 19 -25 32
-55 13 -30 26 -55 30 -55 4 0 10 -8 13 -17 5 -16 30 -65 58 -113 5 -8 14 -24
19 -35 6 -11 24 -42 40 -70 16 -27 39 -71 52 -97 12 -27 26 -48 30 -48 5 0 8
-9 8 -20 0 -11 7 -23 15 -26 8 -4 15 -14 15 -24 0 -10 7 -23 15 -30 8 -7 15
-21 15 -31 0 -11 5 -19 10 -19 6 0 10 -6 10 -14 0 -8 6 -21 13 -28 6 -7 21
-31 32 -53 11 -22 23 -41 28 -43 4 -2 7 -12 7 -23 0 -11 7 -22 15 -25 8 -4 15
-17 15 -30 0 -13 4 -24 10 -24 5 0 19 -20 30 -44 11 -25 24 -48 30 -51 5 -3
10 -15 10 -26 0 -10 4 -19 10 -19 5 0 12 -11 16 -25 3 -14 10 -25 15 -25 5 0
9 -9 9 -20 0 -11 7 -23 15 -26 8 -4 15 -14 15 -24 0 -10 7 -23 15 -30 8 -7 15
-21 15 -31 0 -11 5 -19 10 -19 6 0 10 -6 10 -14 0 -7 7 -19 15 -26 8 -7 15
-21 15 -31 0 -11 4 -19 10 -19 5 0 12 -11 16 -25 3 -14 10 -25 15 -25 5 0 9
-8 9 -18 0 -10 5 -23 11 -29 13 -13 29 -41 59 -100 11 -24 25 -43 30 -43 6 0
10 -11 10 -25 0 -14 4 -25 9 -25 5 0 14 -12 20 -27 10 -27 51 -103 61 -113 3
-3 15 -25 28 -50 22 -43 31 -60 52 -97 5 -10 19 -36 30 -58 11 -22 34 -62 51
-90 16 -27 35 -62 40 -77 6 -16 15 -28 20 -28 5 0 9 -9 9 -19 0 -11 4 -23 10
-26 5 -3 17 -23 27 -43 9 -20 23 -41 30 -45 7 -4 13 -14 13 -22 0 -14 30 -76
41 -85 4 -3 9 -15 13 -27 4 -13 12 -23 17 -23 5 0 9 -9 9 -19 0 -11 5 -23 10
-26 6 -3 19 -26 30 -50 11 -24 24 -47 30 -50 5 -3 10 -15 10 -26 0 -10 4 -19
10 -19 5 0 12 -11 16 -25 3 -14 10 -25 15 -25 5 0 9 -9 9 -20 0 -11 7 -23 15
-26 8 -4 15 -14 15 -24 0 -10 7 -23 15 -30 8 -7 15 -21 15 -31 0 -11 5 -19 10
-19 6 0 10 -6 10 -14 0 -7 7 -19 15 -26 8 -7 15 -21 15 -31 0 -11 4 -19 10
-19 5 0 12 -11 16 -25 3 -14 10 -25 15 -25 5 0 9 -8 9 -19 0 -10 7 -24 15 -31
8 -7 15 -21 15 -31 0 -10 5 -21 10 -24 6 -3 19 -26 30 -50 11 -24 24 -47 30
-50 5 -3 10 -15 10 -26 0 -10 4 -19 10 -19 5 0 12 -11 16 -25 3 -14 10 -25 15
-25 5 0 9 -9 9 -20 0 -11 7 -23 15 -26 8 -4 15 -17 15 -30 0 -13 3 -24 8 -24
4 0 16 -17 26 -38 10 -20 22 -44 27 -52 4 -8 18 -34 30 -58 13 -23 26 -42 31
-42 4 0 8 -11 8 -25 0 -14 7 -28 15 -31 8 -4 15 -14 15 -24 0 -10 7 -23 15
-30 8 -7 15 -21 15 -31 0 -11 4 -19 9 -19 5 0 12 -11 15 -25 4 -14 11 -25 16
-25 6 0 10 -9 10 -19 0 -11 5 -23 10 -26 6 -3 19 -26 30 -51 11 -24 25 -44 30
-44 6 0 10 -7 10 -15 0 -8 4 -15 9 -15 5 0 12 -9 16 -20 14 -44 185 -189 255
-216 8 -3 24 -9 35 -14 11 -4 37 -15 58 -24 21 -9 60 -16 87 -16 30 0 50 -5
52 -12 4 -10 76 -14 305 -16 260 -2 303 -1 316 13 10 10 34 15 71 15 30 0 57
4 60 9 3 5 18 12 33 16 42 10 103 38 103 47 0 4 7 8 16 8 8 0 21 6 29 13 7 6
27 23 45 36 48 37 130 120 130 131 0 5 4 10 10 10 5 0 12 11 16 25 3 14 10 25
15 25 5 0 17 17 27 38 9 20 23 41 30 45 6 4 12 14 12 22 0 16 32 79 43 83 4 2
7 12 7 23 0 11 7 22 15 25 8 4 15 12 15 20 0 8 11 32 25 54 14 22 25 46 25 54
0 8 7 16 15 20 8 3 15 15 15 26 0 11 4 20 10 20 5 0 12 11 16 25 3 14 10 25
15 25 5 0 9 11 9 24 0 13 7 26 15 30 8 3 15 15 15 26 0 11 4 20 8 20 5 0 18
21 30 47 24 52 43 85 54 93 3 3 10 18 13 33 4 15 11 27 16 27 5 0 9 11 9 25 0
16 6 25 15 25 9 0 15 9 15 24 0 13 7 26 15 30 8 3 15 15 15 26 0 11 5 20 10
20 6 0 10 9 10 20 0 11 4 20 10 20 5 0 12 11 16 25 3 14 9 25 13 25 8 0 41 71
41 87 0 6 7 13 15 17 8 3 15 14 15 25 0 11 4 23 10 26 5 3 17 23 27 43 9 20
23 43 30 50 7 7 13 18 13 23 0 5 11 27 25 49 14 22 25 47 25 55 0 9 7 18 15
21 8 4 15 17 15 30 0 13 4 24 9 24 5 0 20 20 33 44 13 25 34 66 48 93 14 26
28 50 33 51 4 2 7 15 7 28 0 13 5 24 10 24 6 0 15 10 20 23 6 12 19 36 29 52
11 17 20 38 20 48 1 9 5 17 10 17 5 0 13 10 17 22 3 12 13 28 20 36 8 7 14 20
14 28 0 8 5 14 10 14 6 0 10 9 10 20 0 11 7 23 15 26 8 4 15 14 15 24 0 11 4
21 9 25 12 7 41 64 41 80 0 7 7 15 15 19 8 3 15 15 15 26 0 11 4 20 10 20 5 0
12 11 16 25 3 14 10 25 15 25 5 0 9 8 9 19 0 10 7 24 15 31 8 7 15 19 15 26 0
8 4 14 8 14 9 0 42 69 42 87 0 6 7 13 15 17 8 3 15 15 15 26 0 11 4 20 10 20
5 0 12 11 16 25 3 14 10 25 15 25 5 0 9 8 9 19 0 10 7 24 15 31 8 7 15 16 15
21 0 5 11 27 25 49 14 22 25 46 25 54 0 8 7 16 15 20 8 3 15 14 15 25 0 11 4
23 10 26 5 3 17 23 27 43 9 20 23 43 30 50 7 7 13 20 13 28 0 8 4 14 8 14 9 0
42 70 42 89 0 6 7 14 15 17 8 4 15 13 15 21 0 8 11 29 25 47 14 18 25 40 25
49 0 10 3 17 8 17 4 0 18 24 32 53 13 28 27 54 30 57 8 8 30 44 36 60 3 8 10
22 15 30 5 8 18 34 29 57 11 23 24 45 30 48 5 3 10 15 10 26 0 10 4 19 10 19
5 0 12 11 16 25 3 14 10 25 15 25 5 0 9 8 9 19 0 10 7 24 15 31 8 7 15 19 15
26 0 8 4 14 10 14 5 0 12 11 16 25 3 14 10 25 15 25 5 0 9 11 9 24 0 13 7 26
15 30 8 3 15 15 15 26 0 11 4 20 10 20 5 0 12 11 16 25 3 14 10 25 14 25 4 0
10 8 14 18 3 9 10 25 16 35 5 9 15 25 20 35 6 9 13 25 16 35 4 9 10 17 15 17
5 0 9 11 9 25 0 14 4 25 9 25 6 0 25 30 43 68 18 37 38 73 45 80 7 7 13 20 13
28 0 8 4 14 10 14 5 0 12 11 16 25 3 14 10 25 15 25 5 0 9 11 9 24 0 13 7 26
15 30 8 3 15 15 15 26 0 11 3 20 8 20 9 0 42 58 42 75 0 7 7 15 15 19 8 3 15
14 15 25 0 11 3 21 8 23 4 2 17 24 30 50 13 26 27 50 33 53 5 4 9 12 9 20 0 8
11 31 25 51 14 20 25 48 25 61 0 13 7 31 15 39 22 22 22 219 0 228 -8 3 -15
15 -15 26 0 33 -74 130 -99 130 -5 0 -11 7 -15 15 -3 8 -15 15 -26 15 -11 0
-20 4 -20 9 0 5 -18 12 -40 16 -22 4 -42 11 -46 16 -7 12 -951 12 -959 0 -3
-5 -19 -12 -35 -16 -17 -4 -43 -13 -60 -21 -52 -26 -130 -112 -130 -143 0 -10
-7 -21 -15 -25 -8 -3 -15 -17 -15 -31 0 -14 -4 -25 -10 -25 -5 0 -12 -11 -16
-25 -3 -14 -10 -25 -15 -25 -5 0 -9 -11 -9 -24 0 -13 -7 -26 -15 -30 -8 -3
-15 -17 -15 -31 0 -14 -4 -25 -10 -25 -5 0 -12 -11 -16 -25 -3 -14 -10 -25
-15 -25 -5 0 -9 -11 -9 -24 0 -13 -7 -26 -15 -30 -8 -3 -15 -17 -15 -31 0 -14
-4 -25 -10 -25 -5 0 -12 -11 -16 -25 -3 -14 -10 -25 -15 -25 -5 0 -9 -11 -9
-24 0 -13 -7 -26 -15 -30 -8 -3 -15 -17 -15 -31 0 -14 -4 -25 -9 -25 -11 0
-41 -57 -41 -77 0 -7 -7 -16 -15 -19 -8 -4 -15 -15 -15 -25 0 -10 -4 -19 -10
-19 -5 0 -12 -11 -16 -25 -3 -14 -10 -25 -15 -25 -5 0 -9 -11 -9 -24 0 -13 -7
-26 -15 -30 -8 -3 -15 -12 -15 -21 0 -9 -5 -21 -11 -28 -10 -12 -23 -35 -89
-164 -19 -37 -41 -72 -47 -76 -7 -4 -13 -14 -13 -22 0 -16 -32 -79 -42 -83 -5
-2 -8 -15 -8 -28 0 -15 -6 -24 -15 -24 -8 0 -15 -7 -15 -15 0 -9 -11 -33 -25
-55 -14 -22 -25 -46 -25 -55 0 -8 -4 -15 -10 -15 -5 0 -12 -11 -16 -25 -3 -14
-9 -25 -13 -25 -8 0 -41 -71 -41 -87 0 -6 -7 -13 -15 -17 -8 -3 -15 -17 -15
-31 0 -14 -4 -25 -10 -25 -5 0 -19 -20 -30 -44 -11 -25 -24 -48 -30 -51 -5 -3
-10 -15 -10 -26 0 -10 -4 -19 -10 -19 -5 0 -12 -11 -16 -25 -3 -14 -10 -25
-15 -25 -5 0 -9 -11 -9 -24 0 -13 -7 -26 -15 -30 -8 -3 -15 -15 -15 -26 0 -11
-4 -20 -10 -20 -5 0 -12 -11 -16 -25 -3 -14 -10 -25 -15 -25 -5 0 -9 -9 -9
-19 0 -11 -4 -22 -10 -26 -5 -3 -24 -36 -42 -73 -18 -37 -38 -71 -45 -75 -7
-4 -13 -19 -13 -32 0 -14 -4 -25 -10 -25 -5 0 -12 -11 -16 -25 -3 -14 -10 -25
-15 -25 -5 0 -9 -9 -9 -20 0 -11 -7 -23 -15 -26 -8 -4 -15 -12 -15 -20 0 -8
-11 -32 -25 -54 -14 -22 -25 -46 -25 -55 0 -8 -4 -15 -10 -15 -5 0 -12 -11
-16 -25 -3 -14 -9 -25 -13 -25 -8 0 -41 -71 -41 -89 0 -6 -7 -14 -15 -17 -8
-4 -15 -14 -15 -24 0 -11 -5 -22 -10 -25 -6 -3 -19 -26 -30 -50 -11 -24 -24
-47 -30 -50 -5 -3 -10 -15 -10 -26 0 -10 -4 -19 -10 -19 -5 0 -12 -11 -16 -25
-3 -14 -10 -25 -15 -25 -5 0 -9 -11 -9 -24 0 -13 -7 -26 -15 -30 -8 -3 -15
-15 -15 -26 0 -11 -4 -20 -10 -20 -5 0 -12 -11 -16 -25 -3 -14 -10 -25 -15
-25 -5 0 -9 -8 -9 -18 0 -10 -5 -23 -11 -29 -13 -13 -29 -41 -58 -100 -12 -23
-25 -45 -31 -48 -5 -3 -10 -14 -10 -24 0 -10 -7 -24 -15 -31 -8 -7 -15 -21
-15 -31 0 -11 -4 -19 -9 -19 -5 0 -12 -11 -15 -25 -4 -14 -11 -25 -16 -25 -6
0 -10 -9 -10 -19 0 -11 -5 -23 -10 -26 -6 -3 -19 -26 -30 -50 -11 -24 -24 -47
-30 -50 -5 -3 -10 -15 -10 -26 0 -10 -4 -19 -9 -19 -5 0 -12 -8 -15 -18 -12
-35 -64 -64 -117 -64 -43 1 -53 5 -76 33 -15 17 -33 37 -40 44 -7 8 -13 20
-13 28 0 8 -7 20 -15 27 -8 7 -15 20 -15 30 0 10 -7 23 -15 30 -8 7 -15 21
-15 31 0 11 -3 19 -8 19 -4 0 -12 9 -17 19 -47 91 -61 116 -67 119 -5 2 -8 12
-8 23 0 11 -7 22 -15 25 -8 4 -15 16 -15 29 0 13 -7 25 -15 29 -8 3 -15 15
-15 26 0 11 -4 20 -10 20 -5 0 -10 8 -10 19 0 10 -7 24 -15 31 -8 7 -15 16
-15 21 0 5 -11 27 -25 49 -14 22 -25 46 -25 54 0 8 -7 16 -15 20 -8 3 -15 13
-15 21 0 9 -7 23 -15 31 -8 9 -15 24 -15 35 0 10 -4 19 -9 19 -5 0 -12 11 -15
25 -4 14 -11 25 -16 25 -6 0 -10 11 -10 25 0 14 -4 25 -10 25 -5 0 -19 20 -30
44 -11 25 -24 48 -30 51 -5 3 -10 15 -10 26 0 10 -4 19 -10 19 -5 0 -12 11
-16 25 -3 14 -10 25 -15 25 -5 0 -9 8 -9 19 0 10 -7 24 -15 31 -8 7 -15 20
-15 29 0 9 -5 22 -11 28 -11 11 -27 40 -79 140 -14 26 -28 50 -32 51 -5 2 -8
12 -8 23 0 11 -7 22 -15 25 -8 4 -15 16 -15 29 0 13 -7 25 -15 29 -8 3 -15 14
-15 25 0 11 -3 21 -7 23 -5 2 -18 23 -31 48 -13 25 -32 59 -42 75 -10 17 -19
37 -19 46 -1 9 -8 19 -16 23 -8 3 -15 13 -15 21 0 9 -7 23 -15 31 -8 9 -15 24
-15 35 0 10 -4 19 -9 19 -5 0 -12 11 -15 25 -4 14 -11 25 -16 25 -6 0 -10 9
-10 19 0 11 -5 23 -10 26 -6 3 -19 25 -30 48 -11 23 -24 49 -29 57 -5 8 -17
32 -27 53 -10 20 -22 37 -26 37 -5 0 -8 8 -8 19 0 10 -7 24 -15 31 -8 7 -15
21 -15 31 0 10 -5 21 -10 24 -6 3 -20 27 -31 53 -12 26 -25 49 -29 52 -3 3
-21 35 -39 73 -18 37 -37 67 -42 67 -5 0 -9 11 -9 24 0 13 -7 26 -15 30 -8 3
-15 15 -15 26 0 11 -4 20 -9 20 -5 0 -12 11 -15 25 -4 14 -11 25 -16 25 -6 0
-10 7 -10 15 0 9 -11 33 -25 55 -14 22 -25 46 -25 54 0 7 -7 19 -15 26 -8 7
-15 18 -15 25 0 7 -7 18 -15 25 -8 7 -15 21 -15 31 0 11 -4 19 -10 19 -5 0
-10 6 -10 14 0 8 -6 21 -12 28 -7 7 -28 42 -46 78 -18 36 -37 72 -41 80 -5 8
-17 33 -27 55 -11 22 -22 42 -26 43 -5 2 -8 12 -8 23 0 11 -7 22 -15 25 -8 4
-15 12 -15 19 0 16 -32 79 -42 83 -5 2 -8 12 -8 22 0 9 -7 23 -15 30 -8 7 -15
20 -15 30 0 10 -7 23 -15 30 -8 7 -15 21 -15 31 0 11 -4 19 -10 19 -5 0 -10 9
-10 19 0 11 -5 23 -11 26 -5 4 -14 17 -20 28 -21 51 -76 117 -96 117 -7 0 -13
6 -13 13 0 13 -26 26 -107 51 -44 14 -114 16 -482 16 -236 0 -432 -4 -435 -9z"/>
<path d="M31206 5781 c-4 -5 -24 -12 -47 -16 -22 -4 -51 -12 -63 -19 -28 -14
-116 -101 -116 -114 0 -5 -7 -15 -15 -22 -12 -10 -15 -39 -15 -141 0 -100 3
-131 15 -143 8 -8 15 -30 15 -50 0 -19 4 -37 9 -40 5 -4 12 -25 16 -49 4 -23
11 -46 15 -52 4 -5 10 -30 13 -55 3 -24 11 -46 16 -48 6 -2 11 -21 11 -43 0
-21 4 -39 10 -39 5 0 12 -23 16 -50 4 -28 11 -53 15 -56 5 -3 9 -20 9 -38 0
-18 7 -41 15 -52 8 -10 15 -33 15 -50 0 -18 7 -45 15 -60 8 -16 15 -39 15 -51
0 -12 5 -25 10 -28 6 -3 10 -23 10 -44 0 -22 6 -44 15 -51 9 -7 15 -29 15 -51
0 -21 4 -40 9 -44 6 -3 13 -26 17 -50 3 -25 10 -45 15 -45 5 0 9 -18 9 -39 0
-22 7 -46 15 -55 8 -8 15 -30 15 -49 0 -19 7 -48 15 -63 8 -16 15 -41 15 -56
0 -16 5 -28 10 -28 6 0 10 -17 10 -39 0 -22 6 -44 15 -51 9 -7 15 -29 15 -51
0 -21 4 -40 9 -44 6 -3 13 -26 17 -50 3 -25 10 -45 15 -45 5 0 9 -18 9 -39 0
-22 7 -46 15 -55 8 -8 15 -28 15 -44 0 -16 7 -43 15 -58 8 -16 15 -41 15 -56
0 -16 5 -28 10 -28 6 0 10 -17 10 -39 0 -22 6 -44 15 -51 9 -7 15 -29 15 -51
0 -21 4 -40 9 -44 6 -3 13 -26 17 -50 3 -25 10 -45 15 -45 5 0 9 -18 9 -39 0
-22 7 -46 15 -55 8 -8 15 -30 15 -50 0 -19 7 -41 15 -50 8 -8 15 -30 15 -50 0
-19 4 -37 9 -40 4 -3 11 -27 14 -53 3 -26 10 -49 16 -51 6 -2 11 -21 11 -42 0
-21 6 -43 15 -50 9 -7 15 -29 15 -51 0 -21 4 -40 9 -43 4 -3 11 -27 14 -53 3
-26 10 -49 16 -51 6 -2 11 -21 11 -43 0 -26 5 -42 15 -45 10 -4 15 -20 15 -49
0 -24 5 -47 10 -50 6 -3 10 -18 10 -33 0 -15 7 -40 15 -56 8 -15 15 -41 15
-56 0 -16 7 -35 15 -44 8 -8 15 -30 15 -50 0 -19 5 -38 10 -41 6 -3 10 -21 10
-39 0 -18 7 -41 15 -52 8 -10 15 -36 15 -56 0 -20 7 -43 15 -52 8 -8 15 -31
15 -50 0 -20 5 -36 10 -36 6 0 10 -17 10 -38 0 -21 7 -47 15 -58 8 -10 15 -35
15 -55 0 -20 7 -42 15 -49 9 -7 15 -29 15 -51 0 -21 5 -41 10 -44 6 -3 10 -18
10 -33 0 -15 7 -40 15 -56 8 -15 15 -43 15 -61 0 -20 6 -35 15 -39 10 -4 15
-20 15 -50 0 -25 5 -48 10 -51 6 -3 10 -21 10 -40 0 -18 7 -40 15 -49 8 -8 15
-32 15 -56 0 -27 5 -43 15 -46 10 -4 15 -20 15 -49 0 -24 5 -47 10 -50 6 -3
10 -18 10 -33 0 -15 7 -40 15 -56 8 -15 15 -41 15 -56 0 -16 7 -35 15 -44 8
-8 15 -32 15 -55 0 -22 5 -43 10 -46 6 -3 10 -21 10 -40 0 -18 7 -40 15 -49 8
-8 15 -26 15 -39 0 -14 7 -30 15 -37 8 -7 15 -17 15 -22 0 -22 97 -118 119
-118 5 0 11 -7 15 -15 3 -9 18 -15 38 -15 18 0 42 -7 52 -15 29 -22 803 -22
832 0 10 8 34 15 52 15 17 0 32 4 32 9 0 5 10 13 22 17 32 10 108 89 108 112
0 11 7 25 15 32 12 10 15 37 15 120 0 83 -3 110 -15 120 -9 7 -15 29 -15 51 0
21 -4 41 -10 44 -5 3 -10 19 -10 34 0 15 -7 36 -15 47 -8 10 -15 35 -15 55 0
23 -6 39 -15 43 -10 3 -15 19 -15 46 0 22 -4 48 -9 58 -6 9 -13 34 -16 55 -3
20 -10 37 -15 37 -6 0 -10 17 -10 39 0 22 -6 44 -15 51 -9 7 -15 29 -15 51 0
21 -4 41 -10 44 -5 3 -10 21 -10 39 0 18 -7 41 -15 52 -8 10 -15 36 -15 56 0
20 -7 43 -15 52 -8 8 -15 30 -15 50 0 19 -4 38 -10 41 -5 3 -10 21 -10 39 0
18 -7 41 -15 52 -8 10 -15 35 -15 55 0 20 -7 42 -15 49 -9 7 -15 29 -15 51 0
21 -4 41 -10 44 -5 3 -10 18 -10 33 0 15 -7 40 -15 56 -8 15 -15 43 -15 61 0
20 -6 35 -15 39 -10 3 -15 19 -15 45 0 22 -4 43 -10 46 -5 3 -10 21 -10 39 0
18 -7 41 -15 52 -8 10 -15 35 -15 55 0 20 -7 42 -15 49 -8 7 -15 28 -15 46 0
19 -4 42 -9 52 -6 9 -13 34 -16 54 -3 21 -10 38 -15 38 -6 0 -10 20 -10 44 0
26 -6 48 -15 56 -8 7 -15 27 -15 46 0 18 -4 35 -9 38 -4 3 -11 27 -14 53 -3
26 -10 49 -16 51 -6 2 -11 21 -11 43 0 26 -5 42 -15 45 -10 4 -15 20 -15 49 0
24 -4 47 -10 50 -5 3 -10 18 -10 33 0 15 -7 40 -15 56 -8 15 -15 41 -15 56 0
16 -7 35 -15 44 -8 8 -15 30 -15 50 0 19 -4 38 -10 41 -5 3 -10 18 -10 33 0
15 -7 40 -15 56 -8 15 -15 41 -15 56 0 15 -7 33 -15 40 -9 8 -15 30 -15 56 0
24 -4 44 -10 44 -5 0 -10 15 -10 33 0 17 -7 45 -15 61 -8 15 -15 41 -15 57 0
17 -6 32 -15 35 -10 4 -15 20 -15 49 0 24 -4 47 -10 50 -5 3 -10 21 -10 39 0
18 -7 41 -15 52 -8 10 -15 36 -15 57 0 24 -5 40 -15 43 -10 4 -15 20 -15 50 0
24 -4 44 -9 44 -4 0 -11 21 -14 47 -3 26 -10 49 -16 51 -6 2 -11 21 -11 42 0
21 -6 43 -15 50 -9 7 -15 29 -15 51 0 21 -4 41 -10 44 -5 3 -10 18 -10 33 0
15 -7 40 -15 56 -8 15 -15 43 -15 61 0 19 -6 35 -14 38 -8 3 -16 25 -19 49 -8
71 -27 143 -37 146 -6 2 -10 23 -10 47 0 26 -6 47 -15 55 -9 8 -15 30 -15 56
0 24 -4 44 -9 44 -5 0 -11 23 -13 52 -3 29 -11 54 -17 56 -6 2 -11 25 -11 53
0 35 -4 51 -15 55 -9 4 -15 19 -15 40 0 19 -4 42 -9 52 -6 9 -13 34 -16 55 -3
20 -10 37 -15 37 -6 0 -10 17 -10 39 0 22 -6 44 -15 51 -8 7 -15 22 -15 33 0
25 -31 97 -42 97 -4 0 -8 4 -8 10 0 12 -56 70 -69 70 -5 0 -11 7 -15 15 -3 8
-15 15 -26 15 -11 0 -20 4 -20 8 0 4 -24 14 -52 22 -64 16 -833 27 -842 11z"/>
<path d="M2793 5763 c-18 -2 -33 -8 -33 -14 0 -5 -7 -9 -15 -9 -8 0 -15 -7
-15 -15 0 -8 -7 -15 -15 -15 -8 0 -15 -6 -15 -14 0 -8 -7 -16 -15 -20 -8 -3
-15 -15 -15 -26 0 -11 -4 -20 -10 -20 -6 0 -10 -35 -10 -84 0 -47 5 -88 10
-91 6 -3 10 -17 10 -30 0 -13 7 -30 15 -39 8 -8 15 -18 15 -22 0 -13 61 -134
71 -139 5 -4 9 -15 9 -26 0 -10 4 -19 8 -19 5 0 18 -22 30 -50 12 -27 26 -50
32 -50 5 0 10 -11 10 -24 0 -14 5 -28 10 -31 6 -3 20 -27 31 -53 12 -26 24
-49 28 -52 3 -3 19 -32 35 -65 15 -33 32 -67 37 -75 4 -8 19 -35 31 -60 13
-25 26 -46 31 -48 4 -2 7 -12 7 -23 0 -11 7 -22 15 -25 8 -4 15 -14 15 -24 0
-10 7 -23 15 -30 8 -7 15 -21 15 -31 0 -11 5 -19 10 -19 6 0 10 -8 10 -19 0
-10 7 -24 15 -31 8 -7 15 -21 15 -32 0 -10 7 -21 15 -24 8 -4 15 -12 15 -19 0
-13 30 -77 40 -85 4 -3 21 -35 39 -72 18 -37 37 -70 42 -73 5 -4 9 -13 9 -21
0 -20 70 -84 93 -84 9 0 17 -4 17 -10 0 -6 30 -10 69 -10 39 0 73 5 76 10 3 6
15 10 26 10 11 0 22 7 25 15 4 8 12 15 20 15 8 0 14 4 14 9 0 6 11 22 25 37
14 15 25 32 25 39 0 7 7 18 15 25 8 7 15 19 15 27 0 8 7 21 15 29 8 9 15 24
15 35 0 10 5 19 10 19 6 0 10 8 10 19 0 10 7 24 15 31 8 7 15 21 15 31 0 11 4
19 10 19 5 0 12 11 16 25 3 13 12 29 20 36 8 6 14 20 14 30 0 11 5 19 10 19 6
0 10 9 10 20 0 11 7 23 15 26 8 4 15 14 15 24 0 11 5 22 10 25 6 3 19 26 30
50 11 24 24 47 30 50 5 3 10 15 10 26 0 10 4 19 10 19 5 0 12 11 16 25 3 14
10 25 15 25 5 0 9 11 9 24 0 13 7 26 15 30 8 3 15 17 15 31 0 14 4 25 10 25 5
0 16 17 25 38 9 20 21 44 26 52 5 8 12 22 16 30 4 8 9 17 13 20 10 8 40 72 40
85 0 7 7 15 15 19 8 3 15 15 15 26 0 11 4 20 10 20 5 0 12 11 16 25 3 14 10
25 15 25 5 0 9 8 9 19 0 10 7 24 15 31 8 7 15 20 15 30 0 10 7 23 15 30 8 7
15 23 15 36 0 13 5 24 10 24 6 0 10 45 10 115 l0 115 -39 40 c-21 22 -46 40
-54 40 -8 0 -17 6 -19 13 -4 9 -160 12 -734 13 -401 1 -744 -1 -761 -3z"/>
<path d="M9320 5763 c-58 -2 -109 -8 -114 -13 -6 -6 -55 -10 -111 -10 -70 0
-107 -4 -121 -14 -11 -8 -51 -16 -89 -19 -76 -5 -189 -28 -201 -39 -4 -5 -24
-8 -44 -8 -20 0 -45 -7 -56 -15 -10 -8 -33 -15 -51 -15 -17 0 -34 -4 -37 -9
-4 -5 -24 -12 -46 -16 -22 -4 -42 -11 -46 -16 -3 -5 -19 -9 -35 -9 -17 0 -32
-6 -35 -15 -4 -8 -18 -15 -33 -15 -14 0 -35 -7 -45 -15 -11 -8 -28 -15 -38
-15 -10 0 -18 -4 -18 -10 0 -5 -11 -10 -25 -10 -14 0 -28 -7 -31 -15 -4 -8
-12 -15 -19 -15 -16 0 -79 -32 -83 -42 -2 -5 -12 -8 -22 -8 -9 0 -23 -7 -30
-15 -7 -8 -21 -15 -31 -15 -10 0 -22 -6 -26 -13 -4 -7 -25 -21 -45 -31 -21 -9
-38 -21 -38 -26 0 -6 -7 -10 -15 -10 -8 0 -15 -4 -15 -9 0 -5 -10 -13 -22 -17
-12 -3 -31 -15 -42 -25 -11 -11 -42 -34 -68 -52 -26 -17 -48 -38 -48 -44 0 -7
-6 -13 -13 -13 -23 0 -337 -316 -337 -340 0 -5 -3 -10 -7 -10 -5 0 -19 -18
-33 -40 -13 -22 -28 -40 -32 -40 -4 0 -8 -6 -8 -14 0 -8 -7 -16 -15 -20 -8 -3
-15 -12 -15 -21 0 -9 -11 -26 -25 -39 -14 -13 -25 -33 -25 -45 0 -12 -6 -21
-15 -21 -8 0 -15 -8 -15 -18 0 -9 -11 -29 -25 -44 -14 -15 -25 -36 -25 -46 0
-11 -7 -22 -15 -26 -8 -3 -15 -14 -15 -24 0 -11 -7 -25 -15 -32 -8 -7 -15 -21
-15 -31 0 -11 -4 -19 -10 -19 -5 0 -10 -11 -10 -24 0 -13 -7 -26 -15 -30 -8
-3 -15 -11 -15 -18 0 -7 -11 -35 -25 -63 -13 -27 -25 -62 -25 -77 0 -18 -5
-28 -15 -28 -10 0 -15 -10 -15 -30 0 -16 -4 -30 -10 -30 -5 0 -13 -18 -16 -40
-4 -22 -11 -43 -15 -46 -5 -3 -9 -20 -9 -38 0 -19 -7 -39 -15 -46 -8 -7 -15
-29 -15 -49 0 -20 -7 -45 -15 -55 -8 -11 -15 -37 -15 -57 0 -21 -4 -41 -10
-44 -5 -3 -10 -39 -10 -80 0 -55 -4 -74 -15 -79 -12 -4 -15 -27 -15 -121 0
-70 -4 -115 -10 -115 -6 0 -10 -70 -10 -190 0 -120 4 -190 10 -190 6 0 10 -45
10 -114 0 -89 3 -116 15 -126 11 -9 15 -32 15 -81 0 -37 4 -70 9 -73 4 -3 11
-29 13 -58 3 -29 11 -54 17 -56 6 -2 11 -23 11 -47 0 -26 6 -47 15 -55 8 -7
15 -27 15 -46 0 -18 5 -36 10 -39 6 -3 10 -19 10 -35 0 -16 7 -35 15 -44 8 -8
15 -26 15 -40 0 -13 7 -31 15 -40 8 -8 15 -26 15 -40 0 -14 5 -26 10 -26 6 0
10 -11 10 -24 0 -14 7 -31 15 -40 8 -8 15 -24 15 -36 0 -11 7 -23 15 -26 8 -4
15 -14 15 -25 0 -10 11 -39 25 -65 14 -26 25 -53 25 -59 0 -7 7 -15 15 -19 8
-3 15 -12 15 -19 0 -18 28 -75 41 -82 5 -4 9 -15 9 -25 0 -10 6 -23 13 -27 7
-4 21 -25 32 -45 11 -21 23 -38 26 -38 4 0 10 -11 13 -25 4 -14 11 -25 16 -25
6 0 10 -6 10 -14 0 -8 4 -16 8 -18 4 -1 18 -20 31 -41 12 -20 27 -37 32 -37 5
0 9 -5 9 -11 0 -7 10 -21 23 -33 13 -12 26 -29 30 -39 3 -9 11 -17 17 -17 5 0
10 -4 10 -9 0 -10 101 -120 174 -190 27 -25 73 -69 103 -98 29 -28 62 -55 73
-58 11 -4 20 -11 20 -16 0 -5 5 -9 10 -9 6 0 21 -10 33 -23 25 -25 54 -45 80
-53 9 -4 17 -10 17 -15 0 -4 16 -15 35 -24 19 -9 39 -23 46 -31 6 -8 20 -14
30 -14 11 0 19 -4 19 -10 0 -5 20 -19 44 -30 25 -11 48 -24 51 -30 3 -5 15
-10 26 -10 10 0 19 -4 19 -8 0 -5 19 -16 43 -25 23 -10 55 -24 70 -32 16 -8
37 -15 47 -15 10 0 20 -7 24 -15 3 -8 16 -15 30 -15 14 0 28 -4 31 -10 3 -5
16 -10 29 -10 12 0 31 -7 42 -15 10 -8 32 -15 47 -15 16 0 35 -7 43 -15 9 -8
33 -15 55 -15 21 0 39 -4 39 -9 0 -5 22 -11 50 -15 27 -4 52 -11 55 -16 3 -6
30 -10 60 -10 33 0 55 -5 57 -12 3 -8 33 -14 84 -16 43 -2 84 -8 89 -12 6 -4
65 -11 133 -15 67 -4 125 -12 128 -16 3 -5 122 -9 264 -9 198 0 259 -3 262
-12 4 -10 62 -14 235 -16 198 -3 233 -1 246 12 13 14 57 16 311 16 162 0 297
4 300 9 3 4 74 11 158 15 84 4 157 11 162 17 6 5 40 9 76 9 43 0 73 5 86 15
10 8 40 15 66 15 26 0 49 4 52 9 4 5 29 12 56 16 28 4 50 11 50 16 0 5 15 9
34 9 18 0 39 7 46 15 7 8 27 15 44 15 17 0 40 7 50 15 11 8 30 15 43 15 13 0
23 5 23 10 0 6 11 10 24 10 13 0 29 7 36 15 7 8 18 15 25 15 14 0 176 80 185
91 3 3 15 9 28 13 12 4 22 12 22 17 0 5 9 9 20 9 11 0 23 7 26 15 4 8 12 15
20 15 14 0 107 60 112 73 2 4 10 7 18 7 8 0 14 4 14 9 0 5 17 20 38 32 20 13
39 27 40 31 2 4 10 8 18 8 8 0 14 7 14 15 0 8 6 15 13 15 6 1 30 19 52 40 22
22 44 40 48 40 11 0 232 225 265 269 15 20 44 54 64 76 21 22 38 46 38 53 0 7
7 15 15 18 8 4 15 12 15 19 0 7 6 15 13 18 8 3 22 21 31 41 9 20 21 36 26 36
6 0 10 7 10 15 0 8 4 15 8 15 5 0 18 19 31 43 27 52 44 80 52 87 4 3 16 26 28
52 11 26 25 50 31 53 5 3 10 14 10 24 0 10 7 24 15 31 8 7 15 21 15 31 0 11 5
19 10 19 6 0 10 13 10 29 0 16 6 31 15 35 8 3 15 17 15 31 0 14 4 25 10 25 5
0 12 16 16 35 3 19 10 38 15 41 5 3 9 18 9 33 0 16 7 34 15 41 8 7 15 26 15
42 0 16 7 36 15 44 8 9 15 31 15 49 0 19 5 37 10 40 6 3 10 25 10 48 0 23 7
51 15 61 9 12 15 42 15 72 0 28 7 65 15 80 9 18 15 57 15 101 0 39 5 75 10 78
13 8 14 785 1 785 -5 0 -11 38 -13 85 -2 47 -10 91 -16 97 -7 7 -12 33 -12 58
0 25 -7 55 -15 66 -8 10 -15 36 -15 56 0 20 -4 40 -10 43 -5 3 -10 18 -10 33
0 15 -7 40 -15 56 -8 15 -15 39 -15 51 0 13 -7 30 -15 39 -8 8 -15 26 -15 40
0 14 -4 26 -10 26 -5 0 -10 11 -10 24 0 14 -7 31 -15 40 -8 8 -15 24 -15 36 0
11 -7 23 -15 26 -8 4 -15 13 -15 22 0 21 -32 92 -42 92 -4 0 -8 11 -8 25 0 16
-6 25 -15 25 -9 0 -15 9 -15 25 0 14 -4 25 -9 25 -5 0 -12 11 -15 25 -4 14
-11 25 -16 25 -6 0 -10 7 -10 15 0 9 -7 18 -15 21 -8 4 -15 14 -15 23 0 9 -11
28 -25 43 -14 15 -25 30 -25 34 0 8 -62 88 -72 92 -5 2 -8 10 -8 18 0 8 -7 17
-15 20 -8 4 -15 10 -15 14 0 12 -263 290 -274 290 -3 0 -28 22 -57 50 -28 27
-60 52 -70 55 -11 4 -19 11 -19 16 0 5 -4 9 -9 9 -6 0 -25 14 -43 30 -18 17
-38 30 -45 30 -7 0 -13 5 -13 10 0 6 -6 10 -14 10 -8 0 -16 7 -20 15 -3 8 -14
15 -25 15 -10 0 -21 7 -25 15 -3 8 -12 15 -21 15 -8 0 -15 5 -15 10 0 6 -9 10
-19 10 -10 0 -21 7 -25 15 -3 8 -14 15 -25 15 -11 0 -22 4 -26 9 -3 6 -27 20
-53 33 -26 13 -48 26 -50 31 -2 4 -12 7 -22 7 -9 0 -23 7 -30 15 -7 8 -23 15
-36 15 -13 0 -24 5 -24 10 0 6 -8 10 -18 10 -10 0 -27 7 -38 15 -10 8 -29 15
-40 15 -12 0 -27 7 -34 15 -7 8 -21 15 -31 15 -11 0 -27 4 -37 9 -35 17 -88
34 -124 38 -21 3 -42 11 -49 19 -6 8 -29 14 -50 14 -21 0 -40 4 -43 9 -3 5
-30 12 -61 16 -30 3 -57 11 -60 16 -4 5 -36 9 -73 9 -43 1 -74 6 -86 15 -15
12 -52 15 -162 15 -101 0 -143 3 -146 12 -3 9 -189 12 -779 13 -426 1 -821 0
-879 -2z m942 -1285 c4 -10 67 -14 264 -16 142 -1 268 -6 279 -11 11 -5 69
-12 130 -15 60 -3 114 -11 119 -16 6 -6 30 -10 56 -10 25 0 54 -7 64 -15 11
-8 37 -15 58 -15 21 0 38 -4 38 -9 0 -5 18 -12 40 -16 22 -4 40 -11 40 -16 0
-5 8 -9 17 -9 20 0 181 -78 201 -97 7 -7 20 -13 28 -13 8 0 14 -4 14 -10 0 -5
6 -10 14 -10 8 0 16 -7 20 -15 3 -8 11 -15 18 -15 8 0 36 -20 63 -45 76 -69
155 -146 155 -151 0 -3 11 -15 25 -28 14 -13 25 -28 25 -35 0 -6 4 -11 10 -11
5 0 17 -16 26 -36 9 -20 23 -38 31 -41 7 -3 13 -14 13 -24 0 -11 7 -22 15 -25
8 -4 15 -11 15 -17 0 -18 33 -87 42 -87 4 0 8 -9 8 -19 0 -11 7 -26 15 -35 8
-8 15 -24 15 -35 0 -11 5 -23 10 -26 6 -3 10 -19 10 -34 0 -15 7 -36 15 -47 8
-10 15 -36 15 -57 0 -24 5 -40 15 -43 11 -5 15 -24 15 -79 0 -41 5 -77 10 -80
6 -4 10 -87 10 -215 0 -128 -4 -211 -10 -215 -5 -3 -10 -37 -10 -75 0 -51 -4
-69 -15 -74 -9 -3 -15 -18 -15 -35 0 -16 -7 -42 -15 -57 -8 -16 -15 -39 -15
-51 0 -12 -4 -25 -10 -28 -5 -3 -10 -19 -10 -35 0 -15 -7 -30 -15 -34 -8 -3
-15 -12 -15 -20 0 -17 -32 -79 -42 -84 -5 -2 -8 -15 -8 -28 0 -15 -6 -24 -15
-24 -8 0 -15 -8 -15 -18 0 -9 -11 -29 -25 -44 -14 -15 -25 -32 -25 -38 0 -5
-4 -10 -9 -10 -5 0 -13 -10 -16 -21 -8 -25 -217 -239 -234 -239 -6 0 -11 -6
-11 -13 0 -6 -13 -18 -29 -25 -16 -7 -44 -26 -63 -42 -18 -16 -41 -30 -50 -30
-10 0 -18 -4 -18 -9 0 -5 -11 -12 -25 -15 -14 -4 -25 -11 -25 -16 0 -6 -9 -10
-20 -10 -11 0 -23 -7 -26 -15 -4 -8 -13 -15 -22 -15 -21 0 -92 -32 -92 -42 0
-4 -11 -8 -24 -8 -13 0 -29 -7 -36 -15 -7 -8 -25 -15 -41 -15 -16 0 -29 -4
-29 -10 0 -5 -15 -10 -33 -10 -18 0 -42 -7 -53 -15 -10 -8 -36 -15 -57 -15
-24 0 -40 -5 -43 -15 -5 -11 -22 -15 -70 -15 -35 0 -64 -4 -64 -9 0 -5 -36
-11 -80 -13 -45 -3 -86 -10 -92 -16 -16 -16 -1109 -17 -1124 -2 -6 6 -74 13
-152 17 -78 3 -142 10 -142 15 0 4 -28 8 -62 8 -40 1 -70 6 -82 15 -11 8 -36
15 -56 15 -20 0 -40 4 -45 9 -14 11 -109 41 -134 41 -12 0 -21 7 -21 15 0 9
-9 15 -25 15 -14 0 -25 4 -25 8 0 5 -21 18 -47 30 -53 24 -80 40 -101 60 -7 6
-18 12 -23 12 -6 0 -16 6 -23 12 -7 7 -27 24 -45 38 -18 14 -39 31 -46 37 -8
7 -18 13 -24 13 -6 0 -11 7 -11 15 0 8 -6 15 -13 15 -8 0 -20 11 -27 25 -7 14
-19 25 -27 25 -7 0 -13 7 -13 15 0 8 -7 15 -15 15 -8 0 -15 6 -15 13 0 7 -11
21 -25 31 -14 10 -25 24 -25 30 0 6 -10 22 -23 36 -13 14 -26 32 -30 40 -13
28 -32 55 -44 63 -7 4 -13 17 -13 27 0 11 -4 20 -9 20 -5 0 -12 11 -15 25 -4
14 -11 25 -16 25 -6 0 -10 8 -10 18 0 9 -7 26 -15 36 -8 11 -15 28 -15 38 0
10 -4 18 -10 18 -5 0 -10 11 -10 24 0 13 -7 29 -15 36 -8 7 -15 28 -15 46 0
19 -4 34 -10 34 -5 0 -12 22 -16 50 -4 28 -10 50 -14 50 -4 0 -10 28 -12 62
-3 35 -10 64 -16 66 -9 3 -12 77 -12 280 1 228 3 280 15 296 8 11 15 39 15 62
0 24 5 46 10 49 6 3 10 16 10 28 0 12 7 35 15 51 8 15 15 37 15 48 0 11 7 26
15 34 8 9 15 24 15 35 0 10 5 19 10 19 6 0 10 8 10 18 1 9 12 35 25 57 13 22
32 54 41 72 8 18 22 37 30 44 8 6 14 20 14 30 0 11 7 19 15 19 8 0 15 4 15 9
0 5 11 19 25 32 13 13 25 29 25 34 0 6 36 44 79 85 121 114 159 145 194 156 9
4 17 10 17 15 0 5 6 9 14 9 8 0 16 7 20 15 3 8 15 15 26 15 11 0 20 4 20 10 0
5 11 12 25 16 14 3 25 10 25 15 0 5 9 9 19 9 11 0 26 7 35 15 8 8 24 15 35 15
12 0 21 4 21 10 0 5 16 12 35 16 19 3 38 10 41 15 3 5 18 9 34 9 16 0 35 7 44
15 8 8 33 15 56 15 23 0 50 5 61 10 11 6 64 14 119 17 56 3 103 10 106 15 3 4
116 8 252 8 192 0 253 3 272 14 34 19 356 22 362 4z"/>
<path d="M14258 5763 c-16 -2 -28 -9 -28 -14 0 -5 -8 -9 -18 -9 -21 0 -122
-92 -122 -110 0 -6 -7 -18 -15 -26 -8 -9 -15 -26 -15 -39 0 -13 -4 -27 -10
-30 -7 -4 -10 -865 -10 -2551 0 -1689 3 -2544 10 -2544 6 0 10 -9 10 -21 0
-11 8 -35 17 -52 22 -41 93 -117 109 -117 6 0 17 -7 24 -15 7 -8 23 -15 37
-15 13 0 31 -7 39 -15 14 -13 274 -15 2276 -13 1798 2 2262 6 2266 16 2 7 20
12 43 12 21 0 39 4 39 9 0 5 10 13 22 17 12 3 33 17 47 30 14 13 29 24 33 24
5 0 8 7 8 15 0 8 4 15 9 15 5 0 13 10 17 23 4 12 11 25 17 28 5 4 12 30 15 58
2 28 9 54 13 57 13 8 12 724 -1 724 -5 0 -10 20 -10 44 0 26 -6 51 -15 60 -8
8 -15 21 -15 29 0 20 -92 117 -111 117 -9 0 -22 7 -29 15 -7 8 -28 15 -46 15
-19 0 -34 5 -34 10 0 7 -550 10 -1629 10 -1435 0 -1630 2 -1641 15 -7 8 -21
15 -31 15 -19 0 -57 28 -88 63 -45 52 -51 61 -51 78 0 10 -4 21 -10 24 -7 4
-10 653 -10 1914 0 1684 -2 1910 -15 1921 -8 7 -15 23 -15 35 0 12 -7 28 -15
35 -8 7 -15 17 -15 22 0 13 -26 38 -39 38 -6 0 -11 7 -11 15 0 8 -6 15 -14 15
-8 0 -16 7 -20 15 -3 8 -14 15 -25 15 -11 0 -21 6 -23 13 -4 9 -103 12 -449
13 -244 1 -456 -1 -471 -3z"/>
<path d="M19573 5763 c-18 -2 -33 -8 -33 -14 0 -5 -11 -9 -25 -9 -14 0 -28 -7
-31 -15 -4 -8 -11 -15 -17 -15 -18 0 -97 -92 -97 -112 0 -10 -4 -18 -10 -18
-5 0 -10 -24 -10 -54 0 -35 -5 -58 -15 -66 -19 -16 -19 -51 0 -76 12 -16 14
-86 14 -444 0 -358 -2 -428 -14 -444 -23 -30 -22 -1484 0 -1492 13 -5 15 -50
15 -318 0 -172 4 -316 9 -321 5 -6 11 -73 13 -149 3 -98 7 -141 16 -144 8 -2
12 -26 12 -66 0 -39 5 -69 15 -82 8 -10 15 -40 15 -66 0 -26 5 -50 10 -53 6
-3 10 -19 10 -35 0 -16 7 -35 15 -44 8 -8 15 -30 15 -49 0 -19 7 -40 15 -47 8
-7 15 -25 15 -41 0 -16 5 -29 10 -29 6 0 10 -8 10 -18 0 -10 6 -26 14 -37 7
-11 16 -32 20 -47 3 -16 11 -28 16 -28 6 0 10 -8 10 -17 0 -10 16 -45 35 -78
18 -33 44 -79 56 -102 12 -24 26 -43 31 -43 4 0 8 -7 8 -15 0 -9 6 -18 14 -21
7 -3 22 -21 32 -40 10 -19 22 -34 26 -34 5 0 8 -7 8 -15 0 -8 7 -15 15 -15 8
0 15 -6 15 -13 0 -12 242 -257 255 -257 3 0 16 -11 29 -25 13 -14 27 -25 31
-25 4 0 24 -14 45 -30 21 -17 43 -30 49 -30 6 0 11 -4 11 -10 0 -5 6 -10 14
-10 8 0 16 -7 20 -15 3 -8 15 -15 26 -15 11 0 23 -7 26 -15 4 -8 13 -15 21
-15 8 0 27 -8 41 -18 44 -31 213 -112 232 -112 10 0 23 -7 30 -15 7 -8 23 -15
36 -15 13 0 24 -4 24 -10 0 -5 10 -10 23 -10 13 0 32 -7 43 -15 10 -8 32 -15
47 -15 16 0 35 -7 43 -15 9 -8 33 -15 55 -15 21 0 39 -4 39 -9 0 -5 25 -12 55
-16 30 -3 55 -11 55 -16 0 -5 24 -9 54 -9 34 0 56 -5 58 -12 3 -8 33 -14 79
-16 41 -2 79 -8 84 -12 6 -5 56 -11 113 -15 56 -4 102 -11 102 -16 0 -5 63 -9
141 -9 111 0 144 -3 155 -15 23 -22 725 -22 748 0 12 12 46 15 180 15 91 0
167 4 170 9 3 5 53 12 111 16 58 4 105 11 105 16 0 5 31 9 69 9 49 0 74 5 85
15 9 10 34 15 70 15 30 0 57 4 60 9 4 5 29 12 56 16 27 4 52 11 56 16 3 5 20
9 38 9 18 0 41 7 52 15 10 8 31 15 46 15 14 0 39 6 55 14 43 21 75 34 106 40
15 4 27 11 27 16 0 6 14 10 30 10 17 0 30 5 30 10 0 6 4 10 10 10 18 0 110 44
110 52 0 4 7 8 15 8 9 0 32 10 53 23 20 13 45 26 55 30 9 3 17 11 17 17 0 5 8
10 19 10 10 0 24 7 31 15 7 8 19 15 26 15 8 0 14 5 14 10 0 6 6 10 13 10 8 0
27 13 43 30 16 16 34 30 40 30 6 0 23 11 38 25 15 14 31 25 37 25 5 0 9 7 9
15 0 8 6 15 13 15 15 0 227 212 227 228 0 7 6 12 13 12 8 0 22 16 33 35 10 19
22 35 26 35 5 0 8 4 8 9 0 6 10 21 23 35 12 13 33 44 45 68 28 54 44 78 60 96
6 7 12 20 12 28 0 8 5 14 10 14 6 0 10 11 10 24 0 13 7 26 15 30 8 3 15 16 15
28 0 13 7 32 15 42 8 11 15 30 15 43 0 13 5 23 10 23 6 0 10 11 10 24 0 13 7
29 15 36 8 7 15 23 15 35 0 13 7 36 15 51 8 16 15 44 15 62 0 17 5 32 10 32 6
0 10 22 10 49 0 31 5 53 15 61 10 9 15 32 15 74 0 36 5 67 12 74 8 8 14 54 16
125 2 62 8 116 13 122 5 5 9 125 9 268 0 216 2 261 15 273 13 14 15 175 15
1328 0 1138 -2 1315 -15 1332 -8 10 -15 36 -15 57 0 20 -4 37 -9 37 -5 0 -12
11 -15 25 -4 14 -11 25 -16 25 -6 0 -10 7 -10 15 0 8 -4 15 -9 15 -6 0 -25 14
-43 30 -18 17 -40 30 -49 30 -10 0 -19 6 -21 13 -4 9 -109 12 -483 12 -374 0
-479 -3 -482 -12 -3 -7 -13 -13 -24 -13 -11 0 -22 -7 -25 -15 -4 -8 -12 -15
-18 -15 -14 0 -66 -55 -66 -69 0 -5 -7 -14 -15 -21 -8 -7 -15 -23 -15 -35 0
-12 -7 -28 -15 -35 -13 -11 -15 -194 -15 -1541 0 -1008 -3 -1530 -10 -1534 -5
-3 -10 -32 -10 -63 0 -31 -5 -75 -11 -97 -6 -22 -13 -58 -16 -79 -3 -22 -12
-46 -19 -54 -8 -7 -14 -22 -14 -32 0 -20 -47 -117 -67 -138 -7 -7 -13 -17 -13
-22 0 -14 -158 -168 -180 -175 -11 -3 -20 -11 -20 -16 0 -5 -6 -9 -14 -9 -7 0
-19 -7 -26 -15 -7 -8 -21 -15 -31 -15 -11 0 -19 -4 -19 -10 0 -5 -9 -10 -19
-10 -11 0 -26 -7 -35 -15 -8 -8 -26 -15 -41 -15 -14 0 -28 -7 -31 -15 -4 -10
-20 -15 -45 -15 -21 0 -39 -4 -39 -10 0 -5 -15 -10 -32 -10 -18 0 -46 -7 -62
-15 -16 -9 -55 -15 -91 -15 -43 0 -66 -5 -75 -15 -10 -12 -41 -15 -159 -15
-87 0 -151 -4 -157 -10 -7 -7 -148 -9 -420 -6 -519 6 -649 13 -664 32 -8 9
-32 14 -71 14 -33 0 -59 4 -59 10 0 5 -17 12 -37 15 -21 3 -46 10 -55 16 -10
5 -31 9 -47 9 -16 0 -34 7 -41 15 -7 8 -25 15 -41 15 -16 0 -29 4 -29 8 0 9
-69 42 -87 42 -6 0 -13 7 -17 15 -3 8 -12 15 -21 15 -8 0 -15 4 -15 9 0 5 -9
12 -20 16 -51 16 -240 237 -240 281 0 14 -3 22 -33 82 -9 19 -17 51 -17 72 0
21 -6 43 -15 50 -12 10 -15 38 -15 131 0 68 -4 120 -10 124 -7 4 -10 513 -10
1494 0 1292 -2 1490 -15 1507 -8 10 -15 29 -15 42 0 12 -7 25 -15 28 -8 4 -15
10 -15 15 0 13 -58 69 -70 69 -6 0 -10 4 -10 10 0 5 -12 13 -27 16 -16 4 -31
12 -35 18 -7 11 -830 19 -905 9z"/>
<path d="M27010 5750 c0 -5 -11 -10 -24 -10 -13 0 -29 -7 -36 -15 -7 -8 -19
-15 -27 -15 -7 0 -16 -7 -19 -15 -4 -8 -11 -15 -18 -15 -12 -1 -66 -74 -66
-91 0 -6 -7 -17 -15 -25 -8 -9 -15 -30 -15 -47 0 -18 -7 -41 -15 -51 -8 -11
-15 -32 -15 -47 0 -15 -4 -31 -10 -34 -5 -3 -10 -23 -10 -44 0 -22 -6 -44 -15
-51 -9 -7 -15 -29 -15 -50 0 -21 -5 -40 -11 -42 -6 -2 -13 -25 -16 -51 -3 -26
-10 -47 -14 -47 -5 0 -9 -18 -9 -41 0 -23 -7 -47 -15 -55 -8 -9 -15 -31 -15
-50 0 -20 -7 -42 -15 -50 -8 -9 -15 -31 -15 -49 0 -19 -4 -37 -10 -40 -5 -3
-10 -26 -10 -50 0 -29 -5 -45 -15 -49 -9 -3 -15 -18 -15 -35 0 -16 -7 -42 -15
-57 -8 -16 -15 -41 -15 -56 0 -15 -4 -30 -10 -33 -5 -3 -10 -22 -10 -41 0 -20
-7 -42 -15 -50 -8 -9 -15 -31 -15 -50 0 -20 -7 -42 -15 -50 -8 -9 -15 -31 -15
-49 0 -19 -4 -37 -10 -40 -5 -3 -10 -21 -10 -39 0 -19 -7 -39 -15 -46 -9 -7
-15 -29 -15 -50 0 -21 -5 -40 -11 -42 -6 -2 -13 -25 -16 -51 -3 -26 -10 -47
-14 -47 -5 0 -9 -20 -9 -44 0 -30 -5 -46 -15 -50 -10 -3 -15 -19 -15 -43 0
-21 -7 -47 -15 -57 -8 -11 -15 -35 -15 -53 0 -18 -4 -33 -10 -33 -5 0 -10 -17
-10 -39 0 -22 -6 -44 -15 -51 -8 -7 -15 -29 -15 -49 0 -20 -7 -45 -15 -55 -8
-11 -15 -34 -15 -52 0 -18 -4 -36 -10 -39 -5 -3 -10 -23 -10 -45 0 -24 -5 -40
-15 -44 -10 -3 -15 -19 -15 -43 0 -21 -7 -47 -15 -57 -8 -11 -15 -35 -15 -53
0 -18 -4 -33 -10 -33 -5 0 -10 -17 -10 -39 0 -22 -6 -44 -15 -51 -9 -7 -15
-29 -15 -51 0 -22 -4 -39 -10 -39 -5 0 -12 -17 -15 -37 -3 -21 -10 -46 -16
-55 -5 -10 -9 -35 -9 -57 0 -25 -5 -41 -15 -45 -9 -3 -15 -18 -15 -35 0 -16
-7 -42 -15 -57 -8 -16 -15 -41 -15 -56 0 -15 -4 -30 -10 -33 -5 -3 -10 -22
-10 -41 0 -20 -7 -42 -15 -50 -8 -9 -15 -31 -15 -50 0 -20 -7 -42 -15 -50 -8
-9 -15 -31 -15 -49 0 -19 -4 -37 -10 -40 -5 -3 -10 -24 -10 -46 0 -26 -5 -42
-15 -45 -9 -4 -15 -20 -15 -43 0 -20 -7 -45 -15 -55 -8 -11 -15 -34 -15 -52 0
-18 -4 -36 -10 -39 -5 -3 -10 -22 -10 -41 0 -20 -7 -42 -15 -50 -8 -9 -15 -31
-15 -50 0 -20 -7 -42 -15 -50 -8 -9 -15 -31 -15 -49 0 -19 -4 -37 -10 -40 -5
-3 -10 -24 -10 -46 0 -26 -5 -42 -15 -45 -9 -4 -15 -20 -15 -43 0 -20 -7 -45
-15 -55 -8 -11 -15 -34 -15 -52 0 -18 -4 -36 -10 -39 -5 -3 -10 -22 -10 -41 0
-20 -7 -42 -15 -50 -8 -9 -15 -33 -15 -55 0 -21 -4 -39 -10 -39 -5 0 -12 -17
-15 -37 -3 -21 -10 -46 -16 -55 -5 -10 -9 -35 -9 -57 0 -25 -5 -41 -15 -45 -9
-3 -15 -18 -15 -35 0 -16 -7 -42 -15 -57 -8 -16 -15 -41 -15 -56 0 -15 -4 -30
-10 -33 -5 -3 -10 -22 -10 -41 0 -20 -7 -42 -15 -50 -8 -9 -15 -30 -15 -47 0
-18 -7 -41 -15 -51 -8 -11 -15 -32 -15 -47 0 -15 -4 -31 -10 -34 -6 -4 -10
-53 -10 -116 0 -66 4 -109 10 -109 6 0 10 -9 10 -19 0 -32 85 -116 146 -145
l55 -26 433 0 c365 0 438 2 462 15 16 8 37 15 47 15 9 0 17 5 17 10 0 6 5 10
11 10 14 0 109 97 109 111 0 6 7 17 15 25 8 9 15 24 15 34 0 10 5 22 10 25 6
3 10 23 10 44 0 22 6 44 15 51 9 7 15 29 15 50 0 21 5 40 11 42 6 2 13 25 16
51 3 26 10 50 14 53 5 3 9 21 9 40 0 20 7 42 15 50 8 9 15 31 15 50 0 20 7 42
15 50 8 9 15 31 15 49 0 19 5 37 10 40 6 3 10 26 10 50 0 29 5 45 15 49 9 3
15 18 15 35 0 16 7 42 15 57 8 16 15 44 15 62 0 17 5 32 10 32 6 0 10 20 10
44 0 26 6 48 15 56 8 7 15 25 15 40 0 15 7 41 15 56 8 16 15 41 15 56 0 15 5
30 10 33 6 3 10 22 10 41 0 20 7 42 15 50 8 9 15 30 15 47 0 18 7 41 15 51 8
11 15 34 15 52 0 18 5 36 10 39 6 3 10 23 10 44 0 22 6 44 15 51 8 7 15 25 15
40 0 15 7 41 15 56 8 16 15 41 15 56 0 15 5 30 10 33 6 3 10 22 10 41 0 20 7
42 15 50 8 9 15 28 15 44 0 15 7 41 15 56 8 16 15 41 15 56 0 15 5 30 10 33 6
3 10 23 10 44 0 22 6 44 15 51 8 7 15 25 15 40 0 15 7 41 15 56 8 16 15 41 15
56 0 15 5 30 10 33 6 3 10 22 10 41 0 20 7 42 15 50 8 9 15 28 15 44 0 15 7
41 15 56 8 16 15 41 15 56 0 15 5 30 10 33 6 3 10 23 10 44 0 22 6 44 15 51 8
7 15 25 15 39 0 15 8 44 18 64 14 29 20 35 30 25 7 -7 12 -20 12 -29 0 -10 11
-39 25 -65 14 -26 25 -53 25 -61 0 -7 7 -16 15 -19 8 -4 15 -17 15 -30 0 -13
5 -24 10 -24 6 0 10 -11 10 -24 0 -13 7 -29 15 -36 8 -7 15 -21 15 -31 0 -9 7
-24 15 -33 8 -8 15 -20 15 -27 0 -19 33 -89 42 -89 4 0 8 -11 8 -25 0 -14 7
-28 15 -31 8 -4 15 -15 15 -25 0 -19 2 -26 33 -87 9 -19 17 -40 17 -48 0 -8 7
-17 15 -20 8 -4 15 -14 15 -25 0 -10 11 -39 25 -65 14 -26 25 -53 25 -59 0 -7
7 -18 15 -25 8 -7 15 -21 15 -31 0 -10 11 -39 25 -65 14 -26 25 -53 25 -61 0
-7 7 -16 15 -19 8 -4 15 -17 15 -29 0 -13 5 -27 10 -30 6 -3 10 -14 10 -24 0
-10 7 -24 15 -31 8 -7 15 -21 15 -31 0 -9 7 -24 15 -33 8 -8 15 -22 15 -30 0
-15 9 -35 32 -76 4 -8 11 -22 14 -30 3 -8 10 -22 15 -30 5 -8 12 -22 15 -30 3
-8 12 -27 20 -42 8 -14 14 -33 14 -42 0 -9 5 -16 10 -16 6 0 10 -11 10 -25 0
-14 7 -28 15 -31 8 -4 15 -13 15 -22 0 -9 12 -42 26 -72 14 -30 32 -68 39 -85
8 -16 25 -54 39 -84 15 -30 26 -61 26 -68 0 -8 7 -16 15 -19 9 -4 15 -19 15
-35 0 -16 5 -29 10 -29 6 0 10 -5 10 -11 0 -12 26 -75 41 -99 5 -8 12 -22 15
-30 3 -8 17 -37 30 -63 13 -27 24 -55 24 -62 0 -7 7 -18 15 -25 8 -7 15 -23
15 -35 0 -12 7 -28 15 -35 8 -7 15 -23 15 -36 0 -13 5 -24 10 -24 6 0 10 -8
10 -19 0 -10 7 -24 15 -31 8 -7 15 -20 15 -29 0 -9 7 -25 15 -35 8 -11 15 -28
15 -38 0 -10 5 -18 10 -18 6 0 10 -8 10 -19 0 -10 7 -24 15 -31 8 -7 15 -20
15 -30 0 -10 7 -23 15 -30 8 -7 15 -19 15 -26 0 -8 5 -14 10 -14 6 0 10 -4 10
-10 0 -25 161 -179 188 -180 6 0 12 -4 12 -8 0 -5 19 -16 43 -26 23 -10 55
-25 71 -32 16 -8 47 -14 68 -14 22 0 46 -7 55 -16 13 -13 41 -15 181 -12 121
2 166 6 170 16 2 7 22 12 50 12 26 0 56 7 66 15 11 8 26 15 35 15 21 0 91 32
91 42 0 4 6 8 14 8 8 0 16 7 20 15 3 8 11 15 19 15 18 0 129 107 153 148 10
17 22 32 26 32 4 0 23 34 43 75 20 41 41 77 46 81 5 3 9 16 9 30 0 13 5 24 10
24 6 0 10 7 10 16 0 14 15 48 41 94 5 8 12 22 15 30 3 8 10 23 15 32 5 10 9
24 9 32 0 7 7 19 15 26 8 7 15 23 15 35 0 12 7 28 15 35 8 7 15 18 15 26 0 7
11 34 25 60 14 26 25 55 25 65 0 11 4 19 8 19 8 0 34 54 47 97 3 13 11 23 16
23 5 0 9 13 9 29 0 16 6 31 15 35 8 3 15 11 15 19 0 7 11 38 26 68 14 30 31
68 39 84 7 17 25 55 39 85 14 30 26 63 26 72 0 9 7 18 15 22 8 3 15 17 15 31
0 14 5 25 10 25 6 0 10 8 10 18 0 10 7 27 15 38 8 10 15 26 15 35 0 9 7 22 15
29 8 7 15 23 15 36 0 13 5 24 10 24 6 0 10 8 10 19 0 10 7 24 15 31 8 7 15 23
15 36 0 13 4 24 10 24 5 0 13 12 16 27 4 16 18 48 31 72 12 24 23 52 23 61 0
10 7 20 15 24 8 3 15 12 15 21 0 8 4 23 9 33 5 9 17 35 26 57 10 22 22 47 27
55 4 8 11 22 14 30 3 8 17 38 30 65 13 28 24 58 24 67 0 9 7 18 15 22 8 3 15
17 15 31 0 14 5 25 10 25 6 0 10 8 10 18 0 10 7 27 15 38 8 10 15 26 15 35 0
9 7 22 15 29 8 7 15 23 15 36 0 13 5 24 10 24 6 0 10 8 10 19 0 10 7 24 15 31
8 7 15 23 15 36 0 13 4 24 10 24 5 0 13 12 16 27 4 15 13 38 20 52 8 14 14 32
14 39 0 6 5 12 10 12 6 0 10 16 10 36 0 19 7 42 15 50 22 22 22 311 0 340 -8
10 -15 33 -15 50 0 18 -7 45 -15 60 -8 16 -15 41 -15 57 0 15 -4 27 -10 27 -5
0 -10 17 -10 39 0 21 -6 44 -14 50 -8 7 -16 28 -19 49 -9 57 -31 132 -39 132
-5 0 -8 15 -8 34 0 18 -7 39 -15 46 -8 7 -15 27 -15 46 0 18 -4 35 -9 39 -6 3
-13 26 -17 50 -3 25 -10 48 -15 51 -5 3 -9 18 -9 34 0 16 -7 35 -15 44 -8 8
-15 24 -15 36 0 11 -8 33 -17 48 -26 42 -133 142 -152 142 -9 0 -22 5 -28 11
-14 14 -187 16 -205 2 -7 -6 -25 -13 -40 -17 -16 -3 -28 -11 -28 -16 0 -6 -5
-10 -10 -10 -20 0 -111 -101 -126 -140 -3 -8 -17 -38 -30 -65 -13 -28 -24 -55
-24 -61 0 -7 -7 -17 -15 -24 -8 -7 -15 -23 -15 -35 0 -13 -3 -25 -7 -27 -5 -1
-16 -21 -27 -43 -10 -22 -22 -47 -27 -55 -5 -8 -12 -22 -15 -30 -3 -8 -10 -23
-15 -32 -5 -10 -9 -24 -9 -32 0 -7 -7 -19 -15 -26 -8 -7 -15 -23 -15 -35 0
-12 -7 -28 -15 -35 -8 -7 -15 -21 -15 -31 0 -11 -4 -19 -10 -19 -5 0 -10 -9
-10 -19 0 -11 -7 -26 -15 -35 -8 -8 -15 -23 -15 -34 0 -11 -7 -25 -15 -32 -8
-7 -15 -21 -15 -31 0 -11 -4 -19 -10 -19 -5 0 -10 -8 -10 -18 0 -10 -7 -27
-15 -38 -8 -10 -15 -29 -15 -42 0 -12 -7 -25 -15 -28 -8 -4 -15 -14 -15 -24 0
-11 -4 -22 -10 -25 -5 -3 -10 -15 -10 -25 0 -10 -7 -25 -15 -34 -8 -8 -15 -24
-15 -35 0 -12 -4 -21 -8 -21 -5 0 -16 -19 -26 -42 -26 -62 -48 -111 -58 -128
-4 -8 -11 -22 -14 -30 -3 -8 -17 -38 -30 -65 -13 -28 -24 -58 -24 -67 0 -9 -7
-18 -15 -22 -8 -3 -15 -17 -15 -31 0 -14 -4 -25 -10 -25 -5 0 -10 -8 -10 -19
0 -10 -7 -24 -15 -31 -8 -7 -15 -23 -15 -35 0 -12 -7 -28 -15 -35 -8 -7 -15
-23 -15 -35 0 -13 -3 -25 -7 -27 -8 -3 -19 -24 -68 -133 -15 -33 -33 -73 -41
-88 -8 -16 -14 -37 -14 -47 0 -10 -7 -20 -15 -24 -8 -3 -15 -11 -15 -17 0 -19
-33 -89 -42 -89 -4 0 -8 -9 -8 -19 0 -11 -7 -32 -14 -48 -8 -15 -17 -36 -20
-45 -7 -25 -26 -22 -26 3 0 11 -7 27 -15 35 -8 9 -15 24 -15 35 0 10 -4 19
-10 19 -5 0 -10 11 -10 24 0 13 -7 26 -15 30 -8 3 -15 16 -15 28 0 13 -7 32
-15 42 -8 11 -15 28 -15 38 0 10 -4 18 -10 18 -5 0 -10 11 -10 25 0 14 -7 28
-15 31 -8 4 -15 16 -15 28 0 11 -7 30 -15 40 -8 11 -15 28 -15 38 0 10 -4 18
-10 18 -5 0 -10 11 -10 25 0 14 -7 28 -15 31 -9 4 -15 19 -15 35 0 16 -4 29
-10 29 -5 0 -10 6 -10 13 0 6 -14 39 -30 72 -16 33 -30 66 -30 73 0 7 -7 20
-15 28 -8 9 -15 24 -15 35 0 10 -4 19 -10 19 -5 0 -10 11 -10 24 0 14 -7 31
-15 40 -8 8 -15 23 -15 34 0 11 -7 25 -15 32 -8 7 -15 21 -15 31 0 11 -4 19
-10 19 -5 0 -10 11 -10 24 0 13 -7 29 -15 36 -8 7 -15 23 -15 35 0 12 -7 28
-15 35 -8 7 -15 21 -15 31 0 10 -4 21 -10 24 -5 3 -10 15 -10 26 0 11 -7 22
-15 25 -9 4 -15 19 -15 35 0 16 -4 29 -10 29 -5 0 -10 6 -10 13 0 6 -6 24 -14
38 -7 14 -16 37 -20 52 -3 15 -11 27 -16 27 -6 0 -10 11 -10 25 0 14 -4 25
-10 25 -5 0 -13 12 -16 28 -4 15 -10 32 -14 37 -4 6 -10 22 -14 38 -3 15 -11
27 -16 27 -6 0 -10 11 -10 24 0 13 -7 29 -15 36 -8 7 -15 21 -15 31 0 10 -4
21 -10 24 -5 3 -10 14 -10 24 0 10 -7 24 -15 31 -8 7 -15 23 -15 35 0 12 -7
28 -15 35 -8 7 -15 21 -15 31 0 10 -4 21 -10 24 -5 3 -10 14 -10 24 0 10 -7
24 -15 31 -8 7 -15 20 -15 30 0 9 -11 37 -23 61 -13 24 -27 56 -31 72 -3 15
-11 27 -16 27 -6 0 -10 11 -10 24 0 13 -7 29 -15 36 -8 7 -15 21 -15 31 0 10
-4 21 -10 24 -5 3 -10 15 -10 25 0 10 -7 25 -15 34 -8 8 -15 23 -15 34 0 11
-7 25 -15 32 -8 7 -15 21 -15 31 0 10 -4 21 -10 24 -5 3 -10 14 -10 24 0 10
-7 24 -15 31 -8 7 -15 25 -15 40 0 15 -7 33 -15 40 -8 7 -15 21 -15 31 0 11
-4 19 -10 19 -5 0 -10 10 -10 23 0 13 -7 32 -15 43 -8 10 -15 27 -15 36 0 9
-6 29 -14 45 -24 46 -46 100 -46 112 0 6 -4 11 -10 11 -5 0 -10 11 -10 24 0
13 -7 29 -15 36 -8 7 -15 20 -15 29 0 9 -12 39 -25 66 -14 28 -25 56 -25 63 0
7 -7 15 -15 18 -8 4 -15 15 -15 25 0 11 -4 27 -9 37 -4 9 -17 35 -27 57 -10
22 -24 44 -31 48 -7 4 -13 14 -13 22 0 17 -33 75 -42 75 -5 0 -8 7 -8 15 0 8
-6 15 -14 15 -8 0 -16 7 -20 15 -3 8 -14 15 -25 15 -10 0 -21 7 -25 15 -3 8
-16 15 -30 15 -14 0 -28 5 -31 10 -4 6 -137 10 -366 10 -233 0 -359 -4 -359
-10z"/>
</g>
<polygon points="232,409 338,409 351,201" fill="#02FF94"/>
</svg>